<svg xmlns="http://www.w3.org/2000/svg" xmlns:xlink="http://www.w3.org/1999/xlink"><symbol id="arrow-left"><path d="M50 11H7.7l8.1-8.2L13 0 0 13l13 13 2.8-2.8L7.7 15H50v-4Z" fill="#000"/></symbol><symbol id="cart-icon"><path d="M20.188 6.857h-3.55L13.188.381C12.985 0 12.58-.095 12.174.095s-.507.572-.304.953l3.145 5.81H5.783l3.145-5.81c.202-.381 0-.762-.305-.953-.406-.19-.811 0-1.014.286l-3.45 6.476H.812c-.406 0-.812.286-.812.762 0 .381.304.762.812.762h.202l.914 2.857c-.203.095-.305.286-.305.572 0 .38.305.666.71.666L4.058 18h12.884l1.725-5.524c.405 0 .71-.286.71-.667 0-.19-.102-.476-.304-.57l.912-2.858h.203c.406 0 .812-.286.812-.762 0-.476-.406-.762-.812-.762Zm-4.565 9.62H5.073L3.854 12.38h13.087l-1.319 4.095Zm1.623-5.525H3.348l-.812-2.666h15.522l-.812 2.666Z"/></symbol><symbol id="hero-interior-icon"><path d="M15.162 37.717c-.3.995-.2 2.19 0 3.582.499 2.588 1.696 5.971 2.394 9.654h5.087c.698-3.583 1.895-6.967 2.494-9.654.3-1.393.3-2.687 0-3.582-.3-.896-.898-1.593-1.995-2.29h-5.985c-1.197.697-1.796 1.394-1.995 2.29ZM26.933 57.621H13.167c-1.297 0-2.294.995-2.294 2.19V62h18.354v-2.19c0-1.194-.998-2.189-2.294-2.189ZM34.015 2.19h-11.67C22.344.994 21.346 0 20.05 0s-2.294.995-2.294 2.19H6.085L0 27.566c.798-.498 1.596-.995 2.594-.995 1.396 0 2.194.796 2.892 1.393.699.597 1.197.796 1.397.796.299 0 .798-.299 1.496-.796.698-.498 1.596-1.393 2.893-1.393 1.297 0 2.194.796 2.893 1.393.698.497 1.197.796 1.496.796.1 0 .3-.1.598-.199.2-.1.5-.398.898-.597.499-.398 1.097-.995 1.995-1.194.3-.1.599-.1.898-.1 1.297 0 2.194.796 2.893 1.393.698.498 1.197.797 1.496.797.3 0 .798-.299 1.396-.797.699-.597 1.596-1.393 2.893-1.393 1.397 0 2.195.796 2.893 1.393.3.299.598.498.898.598.2.1.399.199.598.199.3 0 .798-.299 1.397-.896.698-.597 1.596-1.393 2.892-1.393.998 0 1.796.497 2.594.995L34.015 2.189ZM23.442 53.143h-6.883c-.699 0-1.098.497-1.098 1.094 0 .597.5 1.095 1.098 1.095h6.883c.698 0 1.097-.498 1.097-1.095.1-.597-.4-1.094-1.098-1.094Z"/><path d="M20.05 28.76c-.1 0-.3.1-.599.199-.2.1-.399.298-.598.398v3.682h2.294v-3.583c-.499-.398-.898-.696-1.097-.696Z"/></symbol><symbol id="hero-lego-toy-icon"><path d="M0 43.993 27.4 60V36.544L0 20.436v23.557Zm51.3-31.51V15c0 1.812-3.5 3.322-7.7 3.322-4.3 0-7.7-1.51-7.7-3.322v-4.127c.3 1.71 3.6 3.12 7.7 3.12 4.3 0 7.7-1.51 7.7-3.322S47.8 7.35 43.6 7.35h-1l-5-2.92V7.55c0 1.812-3.5 3.323-7.7 3.323-2.7 0-5-.604-6.4-1.51-.2-.202-.4-.403-.7-.605-.4-.402-.6-.805-.6-1.208V4.53L17.4 7.35h-1.1c-4.3 0-7.7 1.51-7.7 3.322s3.5 3.322 7.7 3.322c4.1 0 7.4-1.41 7.7-3.12V15c0 1.812-3.5 3.322-7.7 3.322-4.3 0-7.7-1.51-7.7-3.322v-2.416l-6 3.523 27.5 16.108 27.4-16.007-6.2-3.725ZM37.7 22.752c0 1.812-3.5 3.322-7.7 3.322-4.3 0-7.7-1.51-7.7-3.322v-4.128c.3 1.712 3.6 3.121 7.7 3.121s7.4-1.41 7.7-3.12v4.127Zm-5.1 13.993V60L60 43.993V20.738L32.6 36.745Zm-2.7-30.1c4.3 0 7.7-1.51 7.7-3.323C37.6 1.51 34.1 0 29.9 0c-4.3 0-7.7 1.51-7.7 3.322s3.4 3.322 7.7 3.322Z"/></symbol><symbol id="htmlacademy-icon"><path d="M13.6 0h-.1L0 1.4v24.7l13.5 8 13.4-8V1.4L13.6 0ZM25 12.1 13.5 5.3v-.1h-.1l-.1-.1v.1L1.9 12.1v-9l11.5-1.2L25 3.1v9ZM13.4 6.8l11.5 6.7-4.5 2.6-7.1-4.2v1.4l5.9 3.5-.9.5-5-3v1.4l3.8 2.3-.8.5-3-1.8v1.4l1.9 1.1-1.8 1.1L2 13.6l11.4-6.8ZM1.9 15.1l11.4 6.8v1l-7.9-4.7v1.4l8 4.8v1.1l-8-4.7v1.4l8 4.8 8.1-4.9v-5.2l3.4-2v10l-11.5 6.9L1.9 25v-9.9Z"/></symbol><symbol id="map-pin"><path d="M57.128 9.152c-13.096-12.203-34.211-12.203-47.306 0-13.096 12.202-13.096 31.944 0 44.147 0 0 23.653 21.627 23.653 46.627 0-25 23.653-46.627 23.653-46.627 13.095-12.104 13.095-31.945 0-44.147Z" fill="#fff"/><path d="M47.687 45.164c-.609-3.274.102-6.845 0-10.218-.101-3.77-.71-7.44-.71-11.111 0-2.977.507-6.151-.508-9.028.101-.298.101-.695.203-.992.305-1.488-4.67-.695-5.38.595-.508.397-.711.893-.508 1.29.102.099.102.198.102.397-.914 4.464-2.234 8.73-3.757 13.095a257.52 257.52 0 0 1-1.827 4.86 67.034 67.034 0 0 1-2.335-4.662c-1.928-4.762-3.756-9.623-6.09-14.186.304-2.084-4.569-1.885-5.482 0-1.117 2.38-1.015 4.762-.61 7.242.407 2.877.508 5.654.508 8.531.102 5.556.508 11.012.61 16.568-.508.595-.61 1.19-.102 1.885.203.297.507.496.812.794 1.32.992 4.974.198 4.974-1.786 0-5.754-.406-11.409-.609-17.163V29.59c.101.198.203.396.203.595.914 2.182 1.827 4.365 3.147 6.448 1.218 2.084 1.827 4.266 2.538 6.449-.305.297-.406.595-.305.992-.101.297.102.397.406.496.914.793 2.64.397 3.553 0l1.219-.596c.507-.297 1.218-.992 1.015-1.587 0-.099-.102-.297-.102-.397.71-1.785 1.015-3.571 1.422-5.456.406-1.984 1.116-3.869 1.827-5.754.101.893.101 1.687.203 2.58.304 3.57 0 7.043 0 10.614 0 1.191.101 2.282.304 3.374.102.496.508 2.48.406 2.579-.913.794-.609 1.786.508 1.984 1.32.298 2.944-.1 3.959-.992 1.624-1.389.812-3.77.406-5.754Z" fill="#6BC6B3"/></symbol><symbol id="search-icon"><path d="m17.693 16.057-3.477-3.477c1.023-1.33 1.534-2.966 1.534-4.705C15.75 3.477 12.273 0 7.875 0S0 3.477 0 7.875s3.477 7.875 7.875 7.875c1.739 0 3.375-.614 4.704-1.534l3.478 3.477c.204.205.409.307.818.307.614 0 1.125-.511 1.125-1.125 0-.204-.102-.511-.307-.818ZM2.25 7.875c0-3.068 2.557-5.625 5.625-5.625S13.5 4.807 13.5 7.875 10.943 13.5 7.875 13.5 2.25 10.943 2.25 7.875Z"/></symbol><symbol id="telegram-icon"><path fill-rule="evenodd" clip-rule="evenodd" d="M23.46 3.653c.18.15.265.382.227.611l-2.626 15.757a.657.657 0 0 1-1.012.439l-7.878-5.253a.657.657 0 0 1-.149-.956l2.611-3.263-4.36 2.906a.657.657 0 0 1-.658.041L4.363 11.31a.657.657 0 0 1 .073-1.205l18.383-6.566a.657.657 0 0 1 .642.115Zm-17.134 7.17 3.536 1.768 7.561-5.041a.656.656 0 0 1 .877.956l-4.805 6.006 6.438 4.292L22.208 5.15 6.326 10.823Z"/></symbol><symbol id="vkontakte-icon"><path d="M1 5.839c0-.855.515-1.316 1.545-1.383l3.97.025a.52.52 0 0 1 .533.377c.409 1.257.866 2.343 1.372 3.257.506.913 1.168 1.965 1.985 3.156.071.15.187.226.346.226.125 0 .223-.059.293-.176l.08-.277.027-4.35c0-.302-.075-.503-.226-.604-.151-.1-.431-.176-.84-.226-.32-.05-.48-.235-.48-.553 0-.067.01-.118.027-.151.373-1.09 1.44-1.635 3.198-1.635l1.492-.025c.675 0 1.234.16 1.678.478.444.318.666.821.666 1.509v5.708c.125.084.24.126.347.126.266 0 .497-.15.692-.453 1.954-2.582 3.011-4.308 3.17-5.18 0-.017.019-.059.054-.126.125-.251.329-.47.613-.654.284-.184.533-.31.746-.377a.554.554 0 0 1 .24-.05h4.13l.266.025c.355 0 .63.16.826.478.07.1.12.21.146.327.027.117.045.234.054.352.009.117.013.184.013.2v.177c-.124.687-.44 1.42-.946 2.2-.506.78-1.15 1.622-1.931 2.528-.782.905-1.27 1.5-1.466 1.785-.16.201-.24.386-.24.553 0 .135.071.286.213.453l3.89 4.627c.213.269.32.562.32.88 0 .386-.16.705-.48.956-.32.252-.701.394-1.145.428l-.453.025h-4.05a.855.855 0 0 0-.106.012.862.862 0 0 1-.107.013c-.39 0-.755-.16-1.092-.478-.125-.134-.96-1.123-2.505-2.967a1.387 1.387 0 0 0-.373-.327c-.07.268-.164.654-.28 1.157-.115.503-.2.863-.253 1.081l-.08.427c-.177.587-.55.94-1.119 1.057l-.373.025h-2.61c-1.475 0-2.945-.637-4.41-1.911-1.466-1.275-2.784-2.922-3.957-4.942-1.172-2.02-2.264-4.372-3.277-7.054A1.916 1.916 0 0 1 1 5.838Zm16.013 6.513c-.373 0-.71-.096-1.013-.29-.302-.192-.453-.456-.453-.791V5.487c0-.336-.089-.575-.266-.717-.178-.143-.489-.214-.933-.214l-1.518.05c-.764 0-1.341.126-1.732.378.781.352 1.172.922 1.172 1.71v4.426a1.5 1.5 0 0 1-.533 1.044 1.59 1.59 0 0 1-1.066.414c-.532 0-.94-.243-1.225-.729C8.06 9.871 7.03 7.993 6.356 6.216l-.24-.654-3.544-.025c-.231 0-.36.013-.386.038-.027.025-.04.096-.04.213 0 .151.017.31.053.478l.56 1.409c1.491 3.638 3.112 6.505 4.862 8.6 1.75 2.096 3.468 3.144 5.155 3.144h2.665c.106 0 .186-.03.24-.088.053-.06.097-.172.133-.34l.053-.251.506-2.213c.142-.302.267-.503.373-.604a.975.975 0 0 1 .693-.277c.426 0 .861.243 1.305.73l2.265 2.716c.142.218.293.327.453.327h4.396c.533 0 .8-.126.8-.378a.466.466 0 0 0-.08-.251l-3.864-4.552c-.302-.352-.453-.73-.453-1.131 0-.403.142-.788.427-1.157.23-.336.679-.893 1.345-1.673a37.64 37.64 0 0 0 1.745-2.188c.498-.679.826-1.295.986-1.848l.08-.327a.371.371 0 0 1-.027-.163.574.574 0 0 0-.026-.189h-4.183c-.267.1-.48.252-.64.453l-.16.478c-.444 1.156-1.607 2.942-3.49 5.356a1.892 1.892 0 0 1-1.305.503Z"/></symbol><symbol id="youtube-icon"><path d="m17.85 11.293-5.236-3.491a.655.655 0 0 0-1.014.545v6.982a.654.654 0 0 0 1.014.546l5.237-3.491a.655.655 0 0 0 0-1.091Zm-4.94 2.814V9.57l3.403 2.27-3.404 2.268Zm12.48-8.563a2.4 2.4 0 0 0-1.452-1.637C20.218 2.478 14.251 2.5 14 2.5c-.25 0-6.218-.022-9.938 1.407A2.4 2.4 0 0 0 2.61 5.544C2.327 6.613 2 8.576 2 11.838c0 3.262.327 5.226.61 6.295a2.4 2.4 0 0 0 1.452 1.636c3.72 1.43 9.687 1.407 9.938 1.407h.076c.753 0 6.317-.043 9.862-1.407a2.4 2.4 0 0 0 1.451-1.636c.284-1.07.611-3.033.611-6.295s-.327-5.225-.61-6.294Zm-1.266 12.261a1.09 1.09 0 0 1-.655.742c-3.49 1.342-9.404 1.32-9.469 1.32-.066 0-5.978.022-9.47-1.32a1.09 1.09 0 0 1-.654-.742c-.261-1.003-.567-2.847-.567-5.967 0-3.12.306-4.963.567-5.967a1.09 1.09 0 0 1 .655-.742C8.02 3.787 13.935 3.81 14 3.81c.066 0 5.978-.022 9.47 1.32a1.092 1.092 0 0 1 .654.742c.262 1.004.567 2.847.567 5.967 0 3.12-.305 4.964-.567 5.967Z"/></symbol></svg>